<svg width="465" height="473" viewBox="0 0 465 473" fill="none" xmlns="http://www.w3.org/2000/svg">
<path fill-rule="evenodd" clip-rule="evenodd" d="M151.53 93.9306C151.643 93.6398 152.376 93.8508 153.487 94.1712C155.51 94.7541 158.789 95.6989 161.88 94.6406C168.2 92.4706 171.34 82.7306 172.53 69.2906L174.16 32.4106C175.684 25.6321 178.765 19.3015 183.16 13.9206C186.616 9.46853 191.028 5.84949 196.07 3.33057C203.91 -0.42943 211.13 -0.119433 215.77 0.140567C238.93 1.42057 263.54 19.2206 267.97 22.4906C241.13 11.7006 216.17 12.7706 205.57 22.3606C202.016 25.7197 198.938 29.5484 196.42 33.7406C192.77 40.0706 191.65 45.4606 189.99 53.7406C188.999 58.697 188.549 62.3262 188.144 65.5895C187.54 70.4574 187.037 74.5109 184.99 80.9406C184.075 84.1317 182.683 87.1661 180.86 89.9406L180.858 89.9439C178.737 93.055 174.547 99.201 167.36 100.291C158.71 101.631 151.13 94.9506 151.53 93.9306ZM182.98 96.3606C183.209 95.2737 183.866 94.1571 185.159 91.9597L185.17 91.9406C186.63 89.4706 187.97 87.5406 188.92 86.2406C190.85 90.4806 194.2 96.6806 198.52 104.091C204.078 113.644 209.389 120.024 212.746 124.055C215.361 127.197 216.789 128.912 216.22 129.591C214.92 131.141 205.43 125.391 199.22 120.291C196.28 117.851 193.11 113.771 186.77 105.591C184.49 102.631 182.26 99.6106 182.98 96.3606ZM191.624 68.5589L191.624 68.5591C189.581 76.0106 188.99 78.1665 190.53 80.6906C193.15 84.9406 200.22 87.3906 202.98 85.1906C203.78 84.4515 204.269 83.4365 204.35 82.3505C205.5 74.8805 201.96 64.1905 200.58 60.2905C202.33 62.4805 215.37 78.5605 222.93 75.2905C223.437 75.074 223.904 74.773 224.31 74.4006C230.23 68.8406 218.84 49.0906 217.23 46.3406C217.9 47.1906 232.7 65.6405 244.08 61.6406C245.228 61.2317 246.295 60.6222 247.23 59.8406C244.756 50.6384 239.892 42.2546 233.13 35.5405C229.28 31.8005 220.74 23.5106 213.07 25.7406C210.533 26.6643 208.22 28.1125 206.28 29.9906C204.022 32.1517 202.234 34.7562 201.03 37.6406C197.887 44.6288 196.337 50.6241 194.355 58.2869C193.91 60.0103 193.442 61.8181 192.93 63.7406C192.446 65.5603 192.009 67.1538 191.624 68.5589ZM193.64 87.3806C193.969 87.1146 194.627 87.5556 195.568 88.1869C197.175 89.2641 199.607 90.8952 202.64 90.5106C205.64 90.1406 207.84 87.9206 209.16 86.2406C213.071 94.636 217.503 102.779 222.43 110.621C228.828 120.822 235.041 128.857 239.493 134.613C244.087 140.552 246.804 144.066 245.91 145.031C244.49 146.551 235.33 140.271 231.2 137.161C224.61 132.161 219.76 126.951 212.46 117.511C200.83 102.491 192.11 88.6206 193.64 87.3806ZM212.417 76.807C211.183 75.7198 210.293 74.9368 209.81 75.2506C206.44 77.4306 236.12 123.321 245.45 135.791C247.257 138.144 249.312 140.297 251.58 142.211C255.91 145.901 262.31 149.791 263.58 148.491C264.594 147.458 262.059 143.434 260.34 140.706L260.11 140.341C255.297 132.691 251.39 124.527 247.482 116.362C245.495 112.209 243.507 108.056 241.4 103.971C236.716 94.8665 232.598 85.482 229.07 75.8706C227.48 78.1206 225.11 80.5806 221.9 81.0406C217.879 81.6159 214.606 78.7338 212.417 76.807ZM228.7 61.8706C229.178 61.4993 230.104 62.1436 231.507 63.1202C233.656 64.6161 236.925 66.8916 241.42 67.4906C244.265 67.8411 247.153 67.5332 249.86 66.5906C254.14 77.8606 260.12 94.5406 266.17 115.191L266.199 115.289C270.974 131.594 277.025 152.252 274.61 153.191C271.29 154.501 253.55 118.191 246.93 103.801C243.478 96.2938 241.837 92.0994 240.519 88.7304L240.519 88.7302L240.519 88.7299C238.93 84.6716 237.811 81.8109 234.56 75.8006C234.28 75.2823 233.979 74.7324 233.667 74.1617C230.988 69.2594 227.473 62.829 228.7 61.8706ZM230.402 27.174C229.076 26.1659 228.305 25.5804 228.45 25.2406C228.88 24.2406 236.98 26.7406 238.2 27.1706C260.12 34.4306 280.09 89.5606 287.2 110.011C295.64 134.271 302.73 157.931 303.4 160.191C304.98 165.476 306.345 170.174 307.616 174.554L307.618 174.559C311.254 187.083 314.135 197.004 319.15 210.591C324.32 224.581 329.28 235.751 332.65 242.991C325.381 239.781 318.751 235.286 313.08 229.721C300.34 217.121 294.68 200.731 290.81 189.441C288.85 183.691 286.72 177.021 276.42 133.691L276.017 131.992C272.416 116.832 268.964 102.295 262.9 83.9106C262.9 83.9106 259.97 75.0106 254.13 61.4106C251.71 55.7806 246.34 43.6806 240.07 36.4806C237.956 33.9816 235.677 31.6264 233.25 29.4306C232.157 28.5081 231.184 27.7682 230.403 27.1747L230.402 27.1741L230.402 27.174ZM217.38 19.7906C217.38 19.9589 218.135 19.961 219.48 19.9647C224.128 19.9777 235.814 20.0104 247.68 26.9906C256.9 32.4106 263.56 40.4606 272.95 58.8706C282.976 78.545 287.798 93.708 295.555 118.097L295.68 118.491C311.493 168.221 313.775 174.758 314.209 176.003L314.234 176.073C314.251 176.123 314.265 176.163 314.276 176.197C314.293 176.247 314.305 176.284 314.316 176.321C314.322 176.341 314.327 176.362 314.333 176.385C314.341 176.416 314.35 176.451 314.361 176.496C314.372 176.538 314.384 176.588 314.4 176.651C314.953 178.599 315.493 180.531 316.03 182.45C320.874 199.764 325.443 216.1 336.48 235.491C342.55 246.151 346.76 251.051 351.78 254.991C366.78 266.751 384.78 266.861 393.16 266.311C386.833 260.459 380.925 254.17 375.48 247.491C358.68 226.891 351.48 208.911 332.98 161.281C329.517 152.368 325.934 143.501 322.352 134.634C317.566 122.789 312.781 110.944 308.28 98.9906C306.41 93.9906 296.22 66.9006 276.78 40.7906C274.142 36.9961 271.015 33.5665 267.48 30.5906C246.98 13.7906 217.45 18.7306 217.38 19.7906ZM314.155 103.696C305.141 83.6463 301.194 74.8649 302.28 74.3906C302.807 74.1605 303.909 76.1452 308.625 84.6352L308.626 84.6361C311.698 90.1661 316.303 98.4558 323.28 110.691C323.28 110.691 336.52 133.901 368.28 183.291C375.07 193.851 382.4 205.041 395.88 215.391C404.87 222.301 415.06 229.891 426.48 227.091C433.46 225.381 442.01 219.511 443.88 209.691C445.58 200.741 441.21 191.251 432.78 185.991C448.06 188.511 460.04 197.951 463.38 210.291C466.34 221.191 461.49 230.691 459.18 235.191C455.784 241.758 450.841 247.402 444.779 251.635C438.716 255.868 431.716 258.564 424.38 259.491C420.53 259.921 410.7 260.471 397.96 254.071C373.868 241.96 363.369 217.073 354.423 195.867L354.18 195.291C336.145 152.612 322.813 122.956 314.155 103.696ZM267.1 153.171C267.44 153.054 267.857 153.524 268.517 154.268L268.518 154.268C269.393 155.254 270.695 156.721 272.81 157.941C274.679 158.992 276.746 159.643 278.88 159.851C283.173 184.959 292.47 208.948 306.22 230.391C306.24 230.633 306.205 230.878 306.117 231.105C306.028 231.332 305.889 231.535 305.71 231.701C303.41 233.131 293.29 222.251 286.71 212.841C277.855 200.037 274.583 188.503 269.987 172.296L269.98 172.271C265.9 157.891 266.21 153.491 267.1 153.171ZM286.12 221.951C272.189 201.854 263.901 178.389 262.12 154.001H262.16C257.03 152.525 252.376 149.732 248.66 145.901C249.2 149.311 250.1 154.451 251.47 160.641C255.015 176.975 260.928 192.705 269.02 207.331C272.98 214.341 278.08 222.011 284.66 222.071C285.149 222.073 285.638 222.033 286.12 221.951ZM233.76 142.281C234.077 142.151 234.478 142.571 235.142 143.263L235.142 143.263C235.967 144.123 237.197 145.406 239.17 146.581C241.111 147.718 243.248 148.481 245.47 148.831C246.307 156.643 247.745 164.379 249.77 171.971C252.246 181.228 255.814 188.762 258.144 193.683C259.889 197.369 260.941 199.589 260.32 199.971C259.32 200.641 254.79 195.581 252.22 192.331C249.01 188.261 244.39 181.431 238.04 162.061C234.28 150.601 232.55 142.781 233.76 142.281ZM221.845 134.706C220.866 133.612 220.361 133.048 219.98 133.191C218.6 133.681 220.55 142.091 221.22 144.661C223.66 154.821 225.81 163.381 232.56 171.971C234.81 174.841 238.37 178.731 239.22 178.191C239.756 177.847 238.914 175.882 237.522 172.634C235.955 168.976 233.69 163.691 231.91 157.261C230.469 152.076 229.508 146.771 229.04 141.411C227.646 140.358 226.311 139.229 225.04 138.031C223.601 136.669 222.586 135.535 221.845 134.706ZM205.08 129.251C205.403 129.043 205.879 129.365 206.74 129.948C207.667 130.575 209.04 131.504 211.15 132.401C212.851 133.118 214.624 133.648 216.44 133.981C216.556 138.229 217.122 142.452 218.13 146.581C218.986 150.085 220.005 152.882 220.722 154.852C221.438 156.818 221.855 157.961 221.51 158.161C220.66 158.661 216.28 153.021 212.95 147.821C207.54 139.351 203.69 130.161 205.08 129.251ZM66.76 23.3406C79.7431 27.9313 91.663 35.1014 101.802 44.4194C111.942 53.7374 120.091 65.0107 125.76 77.5606C107.269 97.0052 83.4916 110.614 57.36 116.711C57.245 115.176 57.1325 113.638 57.02 112.101C56.9075 110.563 56.795 109.026 56.68 107.491C55.57 109.491 50.19 118.901 38.68 122.341C22.97 127.031 10.29 116.341 9.42999 115.591C10.5419 115.459 11.5813 114.971 12.3925 114.2C13.2038 113.428 13.7432 112.414 13.93 111.311C14.045 110.417 13.9205 109.509 13.569 108.68C13.2176 107.85 12.6519 107.129 11.93 106.591C11.5564 108.286 10.6011 109.796 9.22998 110.861C6.73998 112.691 3.05 112.621 0 110.641C4.22026 100.549 10.7768 91.6032 19.13 84.5406C18.3805 77.559 19.148 70.498 21.38 63.8406C23.0646 58.7968 25.5718 54.0663 28.8 49.8406C10.73 26.4306 10.8 21.0106 12.27 19.4706C14.38 17.1906 24.7 17.5906 25.79 18.0906C25.8188 18.1023 25.8511 18.1023 25.88 18.0906C26.14 18.0472 26.02 17.0687 25.8467 15.6546C25.5001 12.8257 24.9398 8.25408 26.78 5.94057C28.04 4.35057 31.14 2.94057 39.78 5.04057C50.0394 9.00362 59.2697 15.2358 66.78 23.2706L66.76 23.3406ZM57.48 124.641C57.16 154.231 57.01 176.061 57.03 182.011C57.0273 183.451 57.168 184.888 57.45 186.301C58.3299 190.294 60.1968 194.004 62.88 197.091C65.593 200.441 70.0966 206.401 76.048 214.278L76.0499 214.281L76.0559 214.289C79.1625 218.4 82.6635 223.034 86.51 228.091C84.402 251.442 77.3456 274.078 65.81 294.491C64.4 294.011 54.51 290.851 46.93 296.541C44.02 298.721 38.54 304.401 40.68 309.231C41.99 312.231 45.76 313.941 50.06 314.061C49.53 314.651 45.19 319.591 46.88 323.661C47.6761 325.26 49.0535 326.494 50.73 327.111C59.44 331.111 80.85 327.321 84.48 326.661C85.74 327.061 87.07 327.431 88.48 327.751C91.6585 328.493 94.8899 328.956 98.1377 329.138C96.1906 328.189 91.5772 325.673 91.7248 322.5C91.8698 319.236 96.9964 316.003 101.2 316.15C102.073 316.181 102.825 316.357 103.573 316.531C104.806 316.819 106.028 317.104 107.763 316.739C109.172 316.429 110.495 315.812 111.638 314.932C114.627 309.639 116.284 303.698 116.464 297.622C116.534 292.384 115.56 287.184 113.599 282.326C112.389 279.293 110.814 276.419 108.908 273.768C104.152 269.758 100.187 264.895 97.2197 259.428C90.1586 246.386 91.13 233.894 91.6704 227.882C92.6066 217.928 95.8727 208.334 101.204 199.877C104.099 201.333 107.255 202.198 110.487 202.422C112.811 202.596 118.433 202.624 118.63 201.48C118.744 200.817 116.914 200.366 114.12 199.679C108.164 198.215 97.8307 195.673 92.6402 187.695C88.143 180.853 87.7325 170.289 92.022 166.703C93.6315 165.365 95.7435 165.134 98.078 164.878H98.0781C101.038 164.554 104.356 164.191 107.461 161.484C108.364 160.578 109.41 159.827 110.558 159.262C113.37 158.101 116.501 157.968 119.402 158.886C120.429 156.601 122.012 154.609 124.007 153.093L124.176 152.969C125.791 151.774 128.151 150.029 130.253 150.808C132.43 151.615 133.767 154.989 133.167 159.002C138.094 155.293 142.77 154.03 145.106 155.814C146.152 156.623 146.629 157.964 146.841 160.09C147.59 167.536 144.147 174.446 141.617 178.498C149.068 189.003 153.405 201.396 154.131 214.255C164.89 218.121 174.816 223.995 183.382 231.566C189.841 237.272 195.419 243.902 199.937 251.24C209.3 266.689 218.176 293.163 209.508 314.431C191.278 316.015 172.114 308.169 161.377 294.807C149.613 280.148 150.286 261.701 163.318 250.12C166.205 244.431 166.771 239.729 164.45 238.175C161.61 236.265 155.194 239.576 154.034 240.175L153.978 240.204C140.298 247.347 136.24 267.072 141.684 284.327C143.126 288.899 149.055 305.384 167.667 317.346C173.872 321.329 183.464 326.085 191.983 328.139L202.38 328.041C204.848 327.743 207.166 326.696 209.02 325.041C212.44 321.871 213.65 316.701 212.28 311.651C216.008 313.975 218.979 317.336 220.83 321.321C227.47 336.321 215.01 360.191 189.11 379.821C195.715 378.382 202.541 378.278 209.187 379.515C215.832 380.751 222.164 383.303 227.81 387.021C207.58 383.261 186.756 384.19 166.941 389.738C147.126 395.285 128.847 405.303 113.51 419.021C125.035 415.468 137.471 416.349 148.38 421.491C131.009 420.675 113.788 425.056 98.9187 434.074C84.0492 443.093 72.2053 456.339 64.9 472.121C71.9253 468.326 79.3554 465.333 87.05 463.201C98.5516 460.024 107.259 459.748 120.033 459.344C124.752 459.195 130.026 459.028 136.2 458.691L136.29 458.686C142.182 458.362 156.965 457.551 169.53 455.691C193.18 452.191 225.41 447.421 247.68 422.691C252.34 417.511 267.43 400.241 268.53 374.241C269.77 345.091 252.53 324.901 248.28 320.021C241.721 312.594 233.871 306.418 225.11 301.791C238.206 278.968 243.721 252.578 240.86 226.421C239.86 218.001 235.09 183.421 206.43 154.201C195.883 143.459 183.454 134.744 169.76 128.491C167.098 126.956 164.855 124.789 163.23 122.181C161.837 119.851 160.993 117.235 160.76 114.531C160.21 109.831 154.04 101.071 131.28 83.5306C111.94 105.075 85.9722 119.561 57.48 124.701V124.641ZM49.8612 124.486C52.9628 125.056 54.4989 130.838 53.2922 137.399C52.0856 143.961 48.5931 148.818 45.4916 148.247C42.3901 147.677 40.854 141.895 42.0606 135.334C43.2672 128.772 46.7597 123.915 49.8612 124.486Z" fill="white"/>
</svg>
